<?xml version="1.0" encoding="UTF-8"?>
<svg id="_圖層_1" data-name="圖層_1" xmlns="http://www.w3.org/2000/svg" version="1.1" viewBox="0 0 32 25.22">
  <!-- Generator: Adobe Illustrator 30.1.0, SVG Export Plug-In . SVG Version: 2.1.1 Build 136)  -->
  <defs>
    <style>
      .st0 {
        fill: #990839;
        fill-rule: evenodd;
      }

      .st1 {
        fill: #fff9ba;
      }

      .st2 {
        fill: #ca826b;
      }

      .st3 {
        fill: #a56953;
      }

      .st4 {
        fill: #635994;
      }

      .st5 {
        fill: #eebfaa;
      }

      .st6 {
        fill: #533566;
      }

      .st7 {
        fill: #e4b29a;
      }

      .st8 {
        fill: #0092e7;
      }

      .st9 {
        fill: #007acf;
      }

      .st10 {
        fill: #a17fd5;
      }
    </style>
  </defs>
  <path class="st4" d="M3.99,20.22h3.01v3h-3.01v-3Z"/>
  <path class="st4" d="M25,20.22h3.02v3h-3.02v-3Z"/>
  <path class="st6" d="M4,14.22V5.22c0-.55-.45-1-1-1s-1,.45-1,1v15h28v-6H4Z"/>
  <path class="st10" d="M30,10.22H4v4h26v-4Z"/>
  <path class="st9" d="M10.34,8.14l-4.76-1.12c-.81-.19-1.58.42-1.58,1.25v1.88s.04.08.08.08h7.25v-.84c0-.6-.41-1.11-.99-1.25Z"/>
  <path class="st8" d="M11,7.22c0-.55.45-1,1-1h15c1.66,0,3,1.34,3,3v6H11V7.22Z"/>
  <path class="st5" d="M12.58,7.59c-.52.67-1.68,1.47-2.71,1.16l-1.28-.55-1.37-.54c-.82-.64-.97-1.82-.33-2.64l.75-.96c.64-.82,1.82-.97,2.64-.33l.6.46s0,0,.01,0c.34.06.54.07.68.07.16,0,.24,0,.35.09.19.15.18.48.03.67h0c.93.76,1.51,1.44.63,2.57Z"/>
  <path class="st1" d="M8.68,4.66c-.98,1.26-.21,1.85-.21,1.85,0,0-.53.42,1.01,1.62.8.62.15,1.09-.07,1.37-.35.47-1.21-.08-.72-.7,0,0-.63.78-2.8-.92-1.59-1.23-.65-2.82.4-3.59.75-.56.43-.73,1.08-1.57.22-.28.77-.67,1.4-.17.61.47.74,1.04-.09,2.11Z"/>
  <path class="st7" d="M8.47,6.51c-.26.33-.2.81.13,1.07.33.26.81.2,1.07-.13"/>
  <path class="st0" d="M12.14,5.58c.07.02.1.1.08.16-.12.34-.51.54-.87.41-.06-.02-.1-.1-.07-.16.02-.06.1-.1.16-.07.22.08.47-.04.55-.25.02-.07.1-.1.16-.08Z"/>
  <path class="st2" d="M10.57,5.19c-.19.23-.52.29-.78.14-.05-.03-.07-.09-.04-.14s.09-.07.14-.04c.17.1.39.06.52-.09.13-.15.14-.36.03-.51-.03-.05-.02-.12.02-.15.05-.03.11-.02.14.02.17.24.16.56-.03.77Z"/>
  <path class="st3" d="M9.85,3.99c.05.05.05.14,0,.19-.16.16-.23.32-.27.45-.03.1-.04.17-.04.2,0,.08-.05.15-.13.15-.07,0-.13-.06-.13-.13,0-.08.01-.16.05-.29.05-.16.15-.37.34-.57.05-.05.14-.05.19,0Z"/>
</svg>