<?xml version="1.0" encoding="UTF-8"?>
<svg id="_圖層_1" data-name="圖層_1" xmlns="http://www.w3.org/2000/svg" version="1.1" viewBox="0 0 85.33 85.33">
  <!-- Generator: Adobe Illustrator 30.0.0, SVG Export Plug-In . SVG Version: 2.1.1 Build 123)  -->
  <defs>
    <style>
      .st0 {
        fill: #27ae60;
      }

      .st1 {
        fill: #2ecc71;
      }

      .st2 {
        fill: #ecf0f1;
      }
    </style>
  </defs>
  <path class="st0" d="M83.27,44.7c0,22.44-18.19,40.63-40.63,40.63S2,67.14,2,44.7,20.19,4.06,42.63,4.06s40.63,18.19,40.63,40.63Z"/>
  <path class="st1" d="M83.27,40.63c0,22.44-18.19,40.63-40.63,40.63S2,63.08,2,40.63,20.19,0,42.63,0s40.63,18.19,40.63,40.63Z"/>
  <path class="st0" d="M58.89,28.44l-24.38,24.38-10.16-10.16-8.63,8.53,10.16,10.16,8.13,8.13.51.41,33.02-32.91-8.63-8.53Z"/>
  <path class="st2" d="M58.89,24.38l-24.38,24.38-10.16-10.16-8.63,8.53,10.16,10.16,8.13,8.13.51.41,33.02-32.91-8.63-8.53Z"/>
</svg>