<svg height="85.333328" viewBox="0 0 85.333328 85.333328" width="85.333328" xmlns="http://www.w3.org/2000/svg"><g transform="matrix(.13333333 0 0 -.13333333 0 85.333331)"><path d="m640 320c0-176.73-143.27-320-320-320s-320 143.27-320 320 143.27 320 320 320 320-143.27 320-320" fill="#e08e4c"/><path d="m260 140c-55.141 0-100 44.859-100 100s44.859 100 100 100c7.18 0 18.219-2 25.359-3.5l138.039 121.02c1.84 1.601 4.18 2.48 6.602 2.48h40c5.52 0 10-4.48 10-10v-40c0-4.68-3.262-8.762-7.84-9.762l-29.922-6.636-1.418-45.582c-.16-5.122-4.179-9.301-9.3-9.661l-38.2-2.66.84-37.961c.102-4.359-2.64-8.297-6.781-9.699l-34.039-11.559c3.539-9.121 6.66-20.101 6.66-36.48 0-55.141-44.859-100-100-100m-30 100c-16.559 0-30-13.441-30-30s13.441-30 30-30 30 13.441 30 30c0 4.559-1.02 8.879-2.84 12.762-4.801 10.179-15.16 17.238-27.16 17.238" fill="#b77744"/><path d="m230 260c12 0 22.359-7.059 27.16-17.238 1.82-3.883 2.84-8.203 2.84-12.762 0-16.559-13.441-30-30-30s-30 13.441-30 30 13.441 30 30 30zm240 220h-40c-2.422 0-4.762-.879-6.602-2.48l-138.039-121.02c-7.14 1.5-18.179 3.5-25.359 3.5-55.141 0-100-44.859-100-100s44.859-100 100-100 100 44.859 100 100c0 16.379-3.121 27.359-6.66 36.48l34.039 11.559c4.141 1.402 6.883 5.34 6.781 9.699l-.84 37.961 38.2 2.66c5.121.36 9.14 4.539 9.3 9.661l1.418 45.582 29.922 6.636c4.578 1 7.84 5.082 7.84 9.762v40c0 5.52-4.48 10-10 10" fill="#fff"/></g></svg>