<svg height="85.333328" viewBox="0 0 85.333328 85.333328" width="85.333328" xmlns="http://www.w3.org/2000/svg"><g transform="matrix(.13333333 0 0 -.13333333 0 85.333331)"><path d="m640 320c0-176.73-143.27-320-320-320s-320 143.27-320 320 143.27 320 320 320 320-143.27 320-320" fill="#e08e4c"/><path d="m480 115c-6.395 0-12.797 2.441-17.676 7.324l-94.636 94.637c3.863 2.73 7.605 5.656 11.218 8.777l83.418-83.414c4.879-4.883 11.281-7.324 17.676-7.324s12.797 2.441 17.676 7.324c2.281 2.281 4.027 4.891 5.242 7.676 3.992-9.148 2.242-20.191-5.242-27.676-4.879-4.883-11.281-7.324-17.676-7.324m-140.785 131.102c-3.543 5.289-4.856 11.632-3.926 17.699 1.32.734 2.633 1.504 3.926 2.301.894-1.332 1.93-2.598 3.109-3.778l8.192-8.191c-3.625-2.953-7.403-5.629-11.301-8.031" fill="#b77744"/><path d="m480 135c-6.395 0-12.797 2.441-17.676 7.324l-120 120c-9.765 9.766-9.765 25.586 0 35.352 9.754 9.765 25.598 9.765 35.352 0l120-120c9.765-9.766 9.765-25.586 0-35.352-4.879-4.883-11.281-7.324-17.676-7.324" fill="#495672"/><path d="m358.578 430.859c41.27-41.265 41.27-108.171 0-149.437-41.265-41.27-108.172-41.27-149.437 0-41.27 41.266-41.27 108.172 0 149.437 41.265 41.27 108.172 41.27 149.437 0" fill="#7db6d8"/><path d="m283.859 190.469c-38.91 0-75.492 15.152-103.004 42.668-56.796 56.797-56.796 149.211 0 206.008 27.512 27.511 64.094 42.668 103.004 42.668 38.911 0 75.493-15.157 103.004-42.668 47.211-47.211 55.18-119.04 23.903-174.555l-29.801 29.801c7.051 16.41 9.746 34.246 8.094 51.75 2.859 30.269-7.297 61.539-30.481 84.718-20.633 20.633-47.676 30.954-74.719 30.954s-54.086-10.321-74.718-30.954c-23.18-23.179-33.34-54.449-30.481-84.718-2.859-30.274 7.301-61.539 30.481-84.719 20.632-20.637 47.675-30.953 74.718-30.953 19.219 0 38.438 5.211 55.356 15.633.894-1.332 1.93-2.598 3.109-3.778l25.364-25.363c-24.368-17.215-53.383-26.492-83.829-26.492" fill="#b77744"/><path d="m367.688 216.961-25.364 25.363c-1.179 1.18-2.215 2.446-3.109 3.778 3.898 2.402 7.676 5.078 11.301 8.031l28.39-28.395c-3.613-3.121-7.355-6.047-11.218-8.777" fill="#97633d"/><path d="m378.906 225.738-28.39 28.395c2.781 2.265 5.472 4.695 8.062 7.289 9.777 9.777 17.238 20.992 22.387 32.969l29.801-29.801c-6.352-11.274-14.317-21.867-23.903-31.453-2.574-2.574-5.226-5.039-7.957-7.399" fill="#404a5f"/><path d="m178.66 346.141c-2.859 30.269 7.301 61.539 30.481 84.718 20.632 20.633 47.675 30.954 74.718 30.954s54.086-10.321 74.719-30.954c23.184-23.179 33.34-54.449 30.481-84.718-2.235 23.621-12.391 46.632-30.481 64.718-20.633 20.633-47.676 30.954-74.719 30.954s-54.086-10.321-74.718-30.954c-18.086-18.086-28.246-41.097-30.481-64.718" fill="#6594b2"/><path d="m283.859 501.813c-38.91 0-75.492-15.157-103.004-42.668-56.796-56.797-56.796-149.211 0-206.008 27.512-27.516 64.094-42.668 103.004-42.668 38.911 0 75.493 15.152 103.004 42.668 56.797 56.797 56.797 149.211 0 206.008-27.511 27.511-64.093 42.668-103.004 42.668zm0-40c27.043 0 54.086-10.321 74.719-30.954 41.27-41.265 41.27-108.171 0-149.437-20.633-20.637-47.676-30.953-74.719-30.953s-54.086 10.316-74.718 30.953c-41.27 41.266-41.27 108.172 0 149.437 20.632 20.633 47.675 30.954 74.718 30.954" fill="#fff"/></g></svg>