<svg height="85.333328" viewBox="0 0 85.333328 85.333328" width="85.333328" xmlns="http://www.w3.org/2000/svg"><g transform="matrix(.13333333 0 0 -.13333333 0 85.333331)"><path d="m640 320c0-176.73-143.27-320-320-320s-320 143.27-320 320 143.27 320 320 320 320-143.27 320-320" fill="#77caa9"/><path d="m236.898 201.262-6.257 19.359h1.429c5.219 0 9.325 2 11.828 5.274l1.704-5.274c3.011-9.305-.817-17.125-8.704-19.359" fill="#62a48d"/><path d="m226.805 150.621h-20c-11.043 0-20.11 1.453-23.68 12.5l-25.316 77.504h2.191 4.027l17.223-53.754c3.57-11.047 14.512-16.25 25.555-16.25h20c5.222 0 9.328 2 11.832 5.274l1.703-5.274c3.57-11.047-2.488-20-13.535-20" fill="#62a48d"/><path d="m245.602 240.621c3.574-11.047-2.489-20-13.532-20h-20c-11.047 0-22.894 8.953-26.468 20l-32.329 100c-3.574 11.047 2.489 20 13.532 20h20c11.047 0 22.894-8.953 26.468-20z" fill="#c84755"/><path d="m240.34 190.621c3.57-11.047-2.488-20-13.535-20h-20c-11.043 0-21.985 5.203-25.555 16.25l-33.238 103.75c-3.574 11.047 2.484 20 13.531 20h20c11.047 0 22.895-8.953 26.469-20z" fill="#495672"/><path d="m465 150.625c-8.285 0-15 6.715-15 15v10.703c-27.605 25.25-62.82 64.297-160 64.297h-44.398l-32.329 99.996c-3.574 11.047-15.421 20-26.468 20h-20c-11.043 0-17.106-8.953-13.532-20l1.704-5.273c-2.793-3.657-3.586-8.899-1.704-14.727l3.442-10.641c-7.887-2.23-11.715-10.05-8.703-19.359l1.691-5.285c-2.785-3.656-3.574-8.895-1.691-14.715l9.797-29.996h-7.809-10c-11.047 0-20 8.953-20 20-11.047 0-20 8.953-20 20v60c0 11.047 8.953 20 20 20 0 11.047 8.953 20 20 20h20 20 110c97.18 0 132.395 39.043 160 64.293v10.086c0 8.281 6.715 15 15 15s15-6.719 15-15v-104.379c11.047 0 20-8.953 20-20v-40c0-11.047-8.953-20-20-20v-105c0-8.285-6.715-15-15-15" fill="#62a48d"/><path d="m156.715 309.98-3.442 10.641c-1.882 5.828-1.089 11.07 1.704 14.727l7.996-24.727h-1.43c-1.738 0-3.355-.223-4.828-.641" fill="#538777"/><path d="m164.027 240.625h-6.218l-9.797 29.996c-1.883 5.82-1.094 11.059 1.691 14.715z" fill="#538777"/><path d="m245.602 240.625h-21.426l-16.164 49.996c-3.574 11.047-15.422 20-26.469 20h-18.57l-7.996 24.727-1.704 5.273c-3.574 11.047 2.489 20 13.532 20h20c11.047 0 22.894-8.953 26.468-20l32.329-100" fill="#a43f4a"/><path d="m224.176 240.625h-60.149l-14.324 44.711-1.691 5.285c-3.012 9.309.816 17.129 8.703 19.359 1.473.418 3.09.641 4.828.641h1.43 18.57c11.047 0 22.895-8.953 26.469-20z" fill="#404a5f"/><path d="m500 310.621c0-11.047-8.953-20-20-20h-80c-11.047 0-20 8.953-20 20v40c0 11.047 8.953 20 20 20h80c11.047 0 20-8.953 20-20z" fill="#e1e3cc"/><path d="m220 300.621c0-11.047-8.953-20-20-20h-80c-11.047 0-20 8.953-20 20v60c0 11.047 8.953 20 20 20h80c11.047 0 20-8.953 20-20z" fill="#495672"/><path d="m460.66 474.094c-30.039-23.414-60.66-73.473-170.66-73.473h-130l-10-140h140c110 0 140.621-50.058 170.66-73.469z" fill="#fff"/><path d="m180 260.621s-8.953 0-20 0h-20c-11.047 0-20 8.953-20 20v100c0 11.047 8.953 20 20 20h20 20z" fill="#c84755"/><path d="m480 185.621c0-8.281-6.715-15-15-15s-15 6.719-15 15v289.379c0 8.285 6.715 15 15 15s15-6.715 15-15z" fill="#495672"/></g></svg>