<?xml version="1.0" encoding="UTF-8"?>
<svg id="_圖層_1" data-name="圖層_1" xmlns="http://www.w3.org/2000/svg" version="1.1" viewBox="0 0 85.33 85.33">
  <!-- Generator: Adobe Illustrator 30.0.0, SVG Export Plug-In . SVG Version: 2.1.1 Build 123)  -->
  <defs>
    <style>
      .st0 {
        fill: #f1c40f;
      }

      .st1 {
        fill: #f39c12;
      }

      .st2 {
        fill: #34495e;
      }
    </style>
  </defs>
  <path class="st1" d="M42.67,4.07c-4-.41-6.97,2.84-8.25,6.5C23.83,31.69,13.25,52.82,2.68,73.94c-2.51,5.28,2.36,11.78,8.12,11.37h63.73c5.77.41,10.64-6.09,8.12-11.37-10.58-21.12-21.15-42.25-31.74-63.37-1.28-3.66-4.25-6.91-8.25-6.5Z"/>
  <path class="st0" d="M42.67,0c-4-.15-6.97,3.12-8.25,6.6C23.83,27.77,13.25,48.93,2.68,70.08c-2.51,5.31,2.36,11.86,8.12,11.17,10.6-.01,21.26,0,31.86,0,10.6,0,21.26-.01,31.87,0,5.77.69,10.64-5.86,8.12-11.17-10.58-21.15-21.15-42.31-31.74-63.47C49.63,3.13,46.67-.15,42.67,0Z"/>
  <path class="st2" d="M42.67,24.38c-2.24,0-4.06,1.82-4.06,4.06l2.03,28.44h4.06l2.03-28.44c0-2.24-1.82-4.06-4.06-4.06ZM42.67,60.94c-2.24,0-4.06,1.82-4.06,4.06s1.82,4.06,4.06,4.06,4.06-1.82,4.06-4.06-1.82-4.06-4.06-4.06Z"/>
</svg>